<svg x="0px" y="0px" viewBox="0 0 52.000001 52.000001" xml:space="preserve" width="52" height="52" xmlns="http://www.w3.org/2000/svg">
  <path style="fill:#fff;fill-opacity:1" d="M0 0h396.89999v396.89999H0z" transform="scale(.13102)"/>
  <path d="M136.1 243.8H79.4v-56.7H136v56.7zM79.4 56.7v96.4h17v-2.8c0-45.4 25.5-73.7 73.7-73.7h2.8v204.1c0 28.3-11.3 39.7-39.7 39.7h-8.5v19.8h147.4v-19.8h-8.5c-28.3 0-39.7-11.3-39.7-39.7V76.5h2.8c48.2 0 73.7 28.3 73.7 73.7v2.8h17V56.7Zm181.4 187.1h56.7v-56.7h-56.6v56.7z" style="fill:#000;fill-opacity:1" transform="scale(.13102)"/>
</svg>
